<svg 
 xmlns="http://www.w3.org/2000/svg"
 xmlns:xlink="http://www.w3.org/1999/xlink"
 width="53px" height="52px">
<path fill-rule="evenodd"  fill="rgb(157, 157, 157)"
 d="M32.157,26.000 L50.895,44.738 C52.457,46.300 52.457,48.833 50.895,50.395 C49.333,51.957 46.800,51.957 45.238,50.395 L26.500,31.657 L7.761,50.395 C6.199,51.957 3.667,51.957 2.105,50.395 C0.543,48.833 0.543,46.300 2.105,44.738 L20.843,26.000 L2.105,7.261 C0.543,5.699 0.543,3.167 2.105,1.605 C3.667,0.042 6.200,0.042 7.762,1.605 L26.500,20.343 L45.238,1.605 C46.800,0.042 49.333,0.043 50.895,1.605 C52.457,3.167 52.457,5.699 50.895,7.261 L32.157,26.000 Z"/>
</svg>