<svg 
 xmlns="http://www.w3.org/2000/svg"
 xmlns:xlink="http://www.w3.org/1999/xlink"
 width="24px" height="32px">
<path fill-rule="evenodd"  fill="rgb(255, 255, 255)"
 d="M22.000,10.000 L22.000,30.000 C22.000,31.186 21.187,32.000 20.000,32.000 L4.000,32.000 C2.813,32.000 2.000,31.186 2.000,30.000 L2.000,10.000 L-0.000,10.000 L-0.000,8.000 L-0.000,6.000 C-0.000,4.814 0.813,4.000 2.000,4.000 L6.000,4.000 L6.000,1.000 C6.000,0.459 6.459,-0.000 7.000,-0.000 L17.000,-0.000 C17.017,-0.000 16.926,-0.025 16.912,0.555 C16.929,0.537 16.948,-0.000 17.000,-0.000 C17.541,-0.000 18.000,0.459 18.000,1.000 L18.000,4.000 L22.000,4.000 C23.186,4.000 24.000,4.814 24.000,6.000 L24.000,8.000 L24.000,10.000 L22.000,10.000 ZM4.000,30.000 L20.000,30.000 L20.000,10.000 L4.000,10.000 L4.000,30.000 ZM16.000,2.000 L8.000,2.000 L8.000,4.000 L16.000,4.000 L16.000,2.000 ZM21.000,6.000 L2.000,6.000 L2.000,8.000 L22.000,8.000 L21.000,6.000 ZM16.000,12.000 L18.000,12.000 L18.000,27.000 L16.000,27.000 L16.000,12.000 ZM11.000,12.000 L12.986,11.980 L13.000,27.000 L11.000,27.000 L11.000,12.000 ZM6.000,12.000 L8.000,12.000 L8.000,27.000 L6.000,27.000 L6.000,12.000 ZM4.000,30.000 C4.000,29.122 4.034,29.969 4.000,30.000 Z"/>
</svg>