<?xml version="1.0" encoding="utf-8"?>
<!-- Generator: Adobe Illustrator 22.1.0, SVG Export Plug-In . SVG Version: 6.00 Build 0)  -->
<svg version="1.1" id="Layer_1" xmlns="http://www.w3.org/2000/svg" xmlns:xlink="http://www.w3.org/1999/xlink" x="0px" y="0px"
	 viewBox="0 0 103 110" style="enable-background:new 0 0 103 110;" xml:space="preserve">
<style type="text/css">
	.st0{fill:#FFFFFF;}
</style>
<path id="i-drinking.svg" class="st0" d="M12.7,60.3c-1.2,7,3.4,13.6,10.4,14.8c6.7,1.2,13.1-3,14.7-9.6l2.1-19.3
	c-6.9-3.8-4.4,11.8-16.3,9.2C15.4,53.7,13.2,58.9,12.7,60.3z M101.4,83.5c-0.5-1.6-2.3-2.5-3.9-2c0,0,0,0,0,0l-8.6,2.9l-5.4-16.3
	c4.5-2.2,8.1-5.7,10.3-10.2c2.8-5.5,3.2-11.9,1.1-17.7L80.9,7.5L43.3,20l2.5,10.2l-32.1-7L3.1,57.7C0.6,68.8,6.8,80,17.6,83.9
	l-3.6,16.8l-8.8-1.9c-1.7-0.3-3.3,0.8-3.6,2.5c-0.3,1.6,0.7,3.2,2.3,3.6l11.9,2.6c0,0,0,0,0,0c0,0,0,0,0,0l11.8,2.6
	c0.2,0,0.4,0.1,0.7,0.1c1.7,0,3.1-1.4,3.1-3.1c0-1.5-1-2.7-2.4-3l-8.9-1.9l3.6-16.7c0.6,0,1.2,0.1,1.8,0.1
	c10.8-0.1,20.1-7.7,22.3-18.3l2.5-18.9l1.7,6.7c3.5,10.9,14.6,17.4,25.8,15.2L83,86.4l-8.6,2.9c-1.6,0.5-2.5,2.3-2,3.9
	c0.4,1.3,1.6,2.1,2.9,2.1c0.3,0,0.7-0.1,1-0.2l23.1-7.7C101.1,86.9,102,85.2,101.4,83.5C101.4,83.5,101.4,83.5,101.4,83.5
	L101.4,83.5z M41.6,66c-2,8.9-10.8,14.5-19.7,12.7h0C13,76.8,7.3,68.1,9,59.2l8.9-28.6l27.6,6L41.6,66z M57.8,53.2l-7.1-29.1
	l26.8-8.9l11.8,27.3c2.9,8.7-1.8,18.1-10.5,21C70.1,66.3,60.8,61.8,57.8,53.2z M85.8,44.2c-0.6-1.3-3.4-6.3-11.3-3.7
	c-11.6,3.9-10.8-11.9-17.2-7.4l4.2,19c2.2,6.7,9.4,10.4,16.1,8.2C84.3,58.2,88,50.9,85.8,44.2L85.8,44.2z M32.5,7
	c1.9-0.1,3.4-1.8,3.3-3.7C35.7,1.4,34-0.1,32.1,0c-1.9,0.1-3.4,1.8-3.3,3.7C28.9,5.6,30.5,7.1,32.5,7L32.5,7z M46,13.1
	c1.9-0.1,3.4-1.7,3.3-3.7c-0.1-1.9-1.7-3.4-3.7-3.3c-1.9,0.1-3.4,1.7-3.3,3.7c0,0,0,0,0,0C42.4,11.8,44.1,13.2,46,13.1L46,13.1z
	 M30.5,16.1c0.1,1.9,1.8,3.4,3.7,3.3c1.9-0.1,3.4-1.8,3.3-3.7c-0.1-1.9-1.8-3.4-3.7-3.3c0,0,0,0,0,0C31.9,12.5,30.4,14.1,30.5,16.1
	L30.5,16.1z"/>
</svg>
