<svg 
 xmlns="http://www.w3.org/2000/svg"
 xmlns:xlink="http://www.w3.org/1999/xlink"
 width="161px" height="131px">
<defs>
<linearGradient id="PSgrad_0" x1="0%" x2="0%" y1="100%" y2="0%">
  <stop offset="0%" stop-color="rgb(31,120,214)" stop-opacity="1" />
  <stop offset="100%" stop-color="rgb(38,140,247)" stop-opacity="1" />
</linearGradient>

</defs>
<path fill-rule="evenodd"  fill="rgb(0, 0, 0)"
 d="M157.428,44.870 L86.973,88.097 C83.419,90.278 77.604,90.278 74.050,88.097 L3.595,44.870 C0.042,42.689 0.042,39.121 3.595,36.941 L74.050,1.695 C77.604,-0.485 83.419,-0.485 86.973,1.695 L157.428,36.941 C160.981,39.121 160.981,42.689 157.428,44.870 ZM24.047,67.441 L70.296,95.817 C73.129,97.556 76.757,98.513 80.512,98.513 C84.266,98.513 87.894,97.555 90.727,95.817 L138.181,66.702 C138.181,66.702 141.148,64.428 141.148,69.083 C141.148,76.067 141.148,97.020 141.148,97.020 C141.148,97.284 141.148,98.606 141.148,99.016 C141.148,113.943 114.000,130.034 80.510,130.034 C47.021,130.034 19.872,113.943 19.872,99.016 C19.872,98.606 19.872,97.284 19.872,97.020 C19.872,97.020 19.872,77.265 19.872,70.680 C19.872,64.881 24.047,67.441 24.047,67.441 ZM146.952,110.001 C147.204,109.852 147.732,109.558 147.732,108.943 C147.732,98.105 147.732,65.592 147.732,65.592 C147.732,65.592 147.491,63.498 148.563,62.565 C149.493,61.757 152.130,60.286 153.206,59.687 C154.547,58.940 154.514,61.202 154.514,61.202 C154.514,61.202 154.514,97.008 154.514,108.943 C154.514,109.558 155.023,109.842 155.267,109.984 C157.718,111.413 159.368,114.065 159.368,117.108 C159.368,121.663 155.677,125.356 151.123,125.356 C146.570,125.356 142.879,121.663 142.879,117.108 C142.879,114.077 144.516,111.433 146.952,110.001 Z"/>
<path fill="url(#PSgrad_0)"
 d="M157.428,44.870 L86.973,88.097 C83.419,90.278 77.604,90.278 74.050,88.097 L3.595,44.870 C0.042,42.689 0.042,39.121 3.595,36.941 L74.050,1.695 C77.604,-0.485 83.419,-0.485 86.973,1.695 L157.428,36.941 C160.981,39.121 160.981,42.689 157.428,44.870 ZM24.047,67.441 L70.296,95.817 C73.129,97.556 76.757,98.513 80.512,98.513 C84.266,98.513 87.894,97.555 90.727,95.817 L138.181,66.702 C138.181,66.702 141.148,64.428 141.148,69.083 C141.148,76.067 141.148,97.020 141.148,97.020 C141.148,97.284 141.148,98.606 141.148,99.016 C141.148,113.943 114.000,130.034 80.510,130.034 C47.021,130.034 19.872,113.943 19.872,99.016 C19.872,98.606 19.872,97.284 19.872,97.020 C19.872,97.020 19.872,77.265 19.872,70.680 C19.872,64.881 24.047,67.441 24.047,67.441 ZM146.952,110.001 C147.204,109.852 147.732,109.558 147.732,108.943 C147.732,98.105 147.732,65.592 147.732,65.592 C147.732,65.592 147.491,63.498 148.563,62.565 C149.493,61.757 152.130,60.286 153.206,59.687 C154.547,58.940 154.514,61.202 154.514,61.202 C154.514,61.202 154.514,97.008 154.514,108.943 C154.514,109.558 155.023,109.842 155.267,109.984 C157.718,111.413 159.368,114.065 159.368,117.108 C159.368,121.663 155.677,125.356 151.123,125.356 C146.570,125.356 142.879,121.663 142.879,117.108 C142.879,114.077 144.516,111.433 146.952,110.001 Z"/>
</svg>