<?xml version="1.0" encoding="utf-8"?>
<!-- Generator: Adobe Illustrator 22.1.0, SVG Export Plug-In . SVG Version: 6.00 Build 0)  -->
<svg version="1.1" id="Layer_1" xmlns="http://www.w3.org/2000/svg" xmlns:xlink="http://www.w3.org/1999/xlink" x="0px" y="0px"
	 viewBox="0 0 126 110" style="enable-background:new 0 0 126 110;" xml:space="preserve">
<style type="text/css">
	.st0{fill:#FFFFFF;}
</style>
<path id="i-education.svg" class="st0" d="M71.1,79.4c-5,2.8-11.2,2.8-16.2,0L18.3,56.9c0,0-3.3-2-3.3,2.6v22.4
	c0,11.8,21.5,24.6,48,24.6s48-12.7,48-24.6V58.2c0-3.7-2.4-1.9-2.4-1.9L71.1,79.4z M123.9,39c2.8-1.7,2.8-4.5,0-6.3L68.1,4.8
	c-3.2-1.7-7-1.7-10.2,0L2.1,32.7c-2.8,1.7-2.8,4.5,0,6.3l55.8,34.2c3.2,1.7,7,1.7,10.2,0 M121.6,89.8V52c0,0,0-1.8-1-1.2
	c-1.3,0.7-2.5,1.4-3.7,2.3c-0.5,0.7-0.8,1.5-0.7,2.4v34.3c0,0.4-0.3,0.7-0.6,0.8c-3.1,1.8-4.2,5.8-2.3,8.9c1.8,3.1,5.8,4.2,8.9,2.3
	c3.1-1.8,4.2-5.8,2.3-8.9c-0.6-1-1.4-1.8-2.4-2.3C121.8,90.4,121.6,90.1,121.6,89.8z"/>
</svg>
