<svg 
 xmlns="http://www.w3.org/2000/svg"
 xmlns:xlink="http://www.w3.org/1999/xlink"
 width="206px" height="168px">
<defs>
<linearGradient id="PSgrad_0" x1="0%" x2="0%" y1="100%" y2="0%">
  <stop offset="0%" stop-color="rgb(234,244,255)" stop-opacity="1" />
  <stop offset="100%" stop-color="rgb(255,255,255)" stop-opacity="1" />
</linearGradient>

</defs>
<path fill-rule="evenodd"  fill="rgb(255, 255, 255)"
 d="M205.474,140.493 C205.474,155.440 193.309,167.600 178.356,167.600 L27.643,167.600 C12.690,167.600 0.525,155.440 0.525,140.493 L0.525,27.506 C0.525,27.475 0.530,27.444 0.530,27.413 C0.531,27.360 0.537,27.308 0.538,27.256 C0.675,12.426 12.775,0.400 27.643,0.400 L178.356,0.400 C193.225,0.400 205.325,12.426 205.462,27.256 C205.463,27.309 205.469,27.361 205.470,27.413 C205.470,27.445 205.474,27.475 205.474,27.506 L205.474,140.493 ZM27.643,151.049 L178.356,151.049 C184.179,151.049 188.917,146.314 188.917,140.493 L188.917,43.400 L107.747,100.195 C106.322,101.192 104.661,101.690 103.000,101.690 C101.339,101.690 99.678,101.192 98.252,100.195 L17.083,43.400 L17.083,140.493 C17.083,146.314 21.821,151.049 27.643,151.049 ZM178.356,16.951 L27.643,16.951 C23.164,16.951 19.336,19.759 17.804,23.702 L102.999,83.313 L188.196,23.702 C186.664,19.759 182.836,16.951 178.356,16.951 Z"/>
<path fill="url(#PSgrad_0)"
 d="M205.474,140.493 C205.474,155.440 193.309,167.600 178.356,167.600 L27.643,167.600 C12.690,167.600 0.525,155.440 0.525,140.493 L0.525,27.506 C0.525,27.475 0.530,27.444 0.530,27.413 C0.531,27.360 0.537,27.308 0.538,27.256 C0.675,12.426 12.775,0.400 27.643,0.400 L178.356,0.400 C193.225,0.400 205.325,12.426 205.462,27.256 C205.463,27.309 205.469,27.361 205.470,27.413 C205.470,27.445 205.474,27.475 205.474,27.506 L205.474,140.493 ZM27.643,151.049 L178.356,151.049 C184.179,151.049 188.917,146.314 188.917,140.493 L188.917,43.400 L107.747,100.195 C106.322,101.192 104.661,101.690 103.000,101.690 C101.339,101.690 99.678,101.192 98.252,100.195 L17.083,43.400 L17.083,140.493 C17.083,146.314 21.821,151.049 27.643,151.049 ZM178.356,16.951 L27.643,16.951 C23.164,16.951 19.336,19.759 17.804,23.702 L102.999,83.313 L188.196,23.702 C186.664,19.759 182.836,16.951 178.356,16.951 Z"/>
</svg>