<svg 
 xmlns="http://www.w3.org/2000/svg"
 xmlns:xlink="http://www.w3.org/1999/xlink"
 width="69px" height="64px">
<path fill-rule="evenodd"  fill="rgb(255, 255, 255)"
 d="M61.000,64.000 L8.000,64.000 C3.582,64.000 -0.000,60.418 -0.000,56.000 L-0.000,8.000 C-0.000,3.582 3.582,-0.000 8.000,-0.000 L61.000,-0.000 C65.418,-0.000 69.000,3.582 69.000,8.000 L69.000,56.000 C69.000,60.418 65.418,64.000 61.000,64.000 ZM62.000,11.000 C62.000,8.791 60.209,7.000 58.000,7.000 L11.000,7.000 C8.791,7.000 7.000,8.791 7.000,11.000 L7.000,45.000 C7.000,47.209 8.791,49.000 11.000,49.000 L58.000,49.000 C60.209,49.000 62.000,47.209 62.000,45.000 L62.000,11.000 Z"/>
<path fill-rule="evenodd"  fill="rgb(255, 255, 255)"
 d="M18.000,14.000 L51.000,14.000 C53.209,14.000 55.000,15.791 55.000,18.000 L55.000,38.000 C55.000,40.209 53.209,42.000 51.000,42.000 L18.000,42.000 C15.791,42.000 14.000,40.209 14.000,38.000 L14.000,18.000 C14.000,15.791 15.791,14.000 18.000,14.000 Z"/>
</svg>