<?xml version="1.0" encoding="utf-8"?>
<!-- Generator: Adobe Illustrator 22.1.0, SVG Export Plug-In . SVG Version: 6.00 Build 0)  -->
<svg version="1.1" id="Layer_1" xmlns="http://www.w3.org/2000/svg" xmlns:xlink="http://www.w3.org/1999/xlink" x="0px" y="0px"
	 viewBox="0 0 16 28" style="enable-background:new 0 0 16 28;" xml:space="preserve">
<style type="text/css">
	.st0{enable-background:new    ;}
	.st1{fill:#268CF7;}
</style>
<g class="st0">
	<path class="st1" d="M9.5,16.6v2.6c0,1.1-0.8,2-2,2c-1,0-2-0.8-2-2V15c0,0,0,0,0-0.1c0,0,0,0,0-0.1c0-1,0.9-2,2-2
		c2.5,0,4.6-2,4.6-4.5c0-2.5-2-4.5-4.6-4.5c-1.6,0-3.1,0.9-3.8,2.2C3.1,7.1,1.9,7.4,1,6.8C0,6.3-0.3,5.1,0.3,4.2
		C1.7,1.7,4.4,0,7.5,0C12.2,0,16,3.8,16,8.4C16,12.4,13.2,15.7,9.5,16.6z M9.5,25.3V26c0,1.1-0.8,2-2,2c-1,0-2-0.8-2-2v-0.7
		c0-1.1,0.9-2,2-2C8.6,23.4,9.5,24.2,9.5,25.3z"/>
</g>
</svg>
