<svg 
 xmlns="http://www.w3.org/2000/svg"
 xmlns:xlink="http://www.w3.org/1999/xlink"
 width="58px" height="58px">
<defs>
<linearGradient id="PSgrad_0" x1="0%" x2="0%" y1="100%" y2="0%">
  <stop offset="0%" stop-color="rgb(31,120,214)" stop-opacity="1" />
  <stop offset="100%" stop-color="rgb(38,140,247)" stop-opacity="1" />
</linearGradient>

</defs>
<path fill-rule="evenodd"  fill="rgb(0, 0, 0)"
 d="M52.318,57.621 L52.318,53.917 L48.964,53.917 L48.964,57.621 L43.662,57.621 L43.662,53.917 L40.308,53.917 L40.308,57.621 L35.005,57.621 L35.005,53.917 L31.651,53.917 L31.651,57.621 L26.349,57.621 L26.349,54.211 L14.338,54.211 L14.338,57.621 L9.036,57.621 L9.036,53.917 L5.682,53.917 L5.682,57.621 L0.379,57.621 L0.379,50.834 L57.621,50.834 L57.621,57.621 L52.318,57.621 ZM43.662,31.835 C44.044,31.862 44.429,31.877 44.818,31.877 C51.878,31.877 57.621,37.620 57.621,44.679 L57.621,47.480 L43.662,47.480 L43.662,31.835 ZM3.271,30.987 L0.379,30.987 L0.379,11.580 L11.094,11.580 C16.799,11.580 21.441,6.939 21.441,1.234 L21.441,0.379 L28.662,0.379 L28.662,11.690 L22.238,11.690 L22.238,15.044 L28.662,15.044 L28.662,15.721 C28.662,16.309 28.695,16.890 28.756,17.463 L22.238,17.463 L22.238,20.817 L29.486,20.817 C29.766,21.656 30.113,22.464 30.520,23.235 L22.238,23.235 L22.238,26.589 L32.874,26.589 C34.853,28.761 37.414,30.393 40.308,31.236 L40.308,47.480 L21.363,47.480 C20.513,38.244 12.724,30.987 3.271,30.987 ZM11.094,8.226 L0.379,8.226 L0.379,0.379 L18.087,0.379 L18.087,1.234 C18.087,5.090 14.950,8.226 11.094,8.226 ZM17.991,47.480 L0.379,47.480 L0.379,34.341 L3.271,34.341 C10.873,34.341 17.156,40.097 17.991,47.480 Z"/>
<path fill="url(#PSgrad_0)"
 d="M52.318,57.621 L52.318,53.917 L48.964,53.917 L48.964,57.621 L43.662,57.621 L43.662,53.917 L40.308,53.917 L40.308,57.621 L35.005,57.621 L35.005,53.917 L31.651,53.917 L31.651,57.621 L26.349,57.621 L26.349,54.211 L14.338,54.211 L14.338,57.621 L9.036,57.621 L9.036,53.917 L5.682,53.917 L5.682,57.621 L0.379,57.621 L0.379,50.834 L57.621,50.834 L57.621,57.621 L52.318,57.621 ZM43.662,31.835 C44.044,31.862 44.429,31.877 44.818,31.877 C51.878,31.877 57.621,37.620 57.621,44.679 L57.621,47.480 L43.662,47.480 L43.662,31.835 ZM3.271,30.987 L0.379,30.987 L0.379,11.580 L11.094,11.580 C16.799,11.580 21.441,6.939 21.441,1.234 L21.441,0.379 L28.662,0.379 L28.662,11.690 L22.238,11.690 L22.238,15.044 L28.662,15.044 L28.662,15.721 C28.662,16.309 28.695,16.890 28.756,17.463 L22.238,17.463 L22.238,20.817 L29.486,20.817 C29.766,21.656 30.113,22.464 30.520,23.235 L22.238,23.235 L22.238,26.589 L32.874,26.589 C34.853,28.761 37.414,30.393 40.308,31.236 L40.308,47.480 L21.363,47.480 C20.513,38.244 12.724,30.987 3.271,30.987 ZM11.094,8.226 L0.379,8.226 L0.379,0.379 L18.087,0.379 L18.087,1.234 C18.087,5.090 14.950,8.226 11.094,8.226 ZM17.991,47.480 L0.379,47.480 L0.379,34.341 L3.271,34.341 C10.873,34.341 17.156,40.097 17.991,47.480 Z"/>
</svg>