<svg 
 xmlns="http://www.w3.org/2000/svg"
 xmlns:xlink="http://www.w3.org/1999/xlink"
 width="134px" height="134px">
<defs>
<linearGradient id="PSgrad_0" x1="0%" x2="0%" y1="100%" y2="0%">
  <stop offset="0%" stop-color="rgb(31,120,214)" stop-opacity="1" />
  <stop offset="100%" stop-color="rgb(38,140,247)" stop-opacity="1" />
</linearGradient>

</defs>
<path fill-rule="evenodd"  fill="rgb(255, 255, 255)"
 d="M67.000,0.440 C30.298,0.440 0.440,30.298 0.440,67.000 C0.440,103.702 30.298,133.560 67.000,133.560 C103.702,133.560 133.560,103.702 133.560,67.000 C133.560,30.298 103.702,0.440 67.000,0.440 ZM89.187,33.720 C95.316,33.720 100.280,38.690 100.280,44.813 C100.280,50.942 95.316,55.907 89.187,55.907 C83.058,55.907 78.093,50.942 78.093,44.813 C78.093,38.690 83.058,33.720 89.187,33.720 ZM44.813,33.720 C50.942,33.720 55.907,38.690 55.907,44.813 C55.907,50.942 50.943,55.907 44.813,55.907 C38.684,55.907 33.720,50.942 33.720,44.813 C33.720,38.690 38.684,33.720 44.813,33.720 ZM67.000,116.920 C46.316,116.920 28.173,98.777 28.173,78.093 C28.173,75.032 30.653,72.547 33.720,72.547 L100.280,72.547 C103.347,72.547 105.827,75.032 105.827,78.093 C105.827,98.777 87.684,116.920 67.000,116.920 Z"/>
<path fill="url(#PSgrad_0)"
 d="M67.000,0.440 C30.298,0.440 0.440,30.298 0.440,67.000 C0.440,103.702 30.298,133.560 67.000,133.560 C103.702,133.560 133.560,103.702 133.560,67.000 C133.560,30.298 103.702,0.440 67.000,0.440 ZM89.187,33.720 C95.316,33.720 100.280,38.690 100.280,44.813 C100.280,50.942 95.316,55.907 89.187,55.907 C83.058,55.907 78.093,50.942 78.093,44.813 C78.093,38.690 83.058,33.720 89.187,33.720 ZM44.813,33.720 C50.942,33.720 55.907,38.690 55.907,44.813 C55.907,50.942 50.943,55.907 44.813,55.907 C38.684,55.907 33.720,50.942 33.720,44.813 C33.720,38.690 38.684,33.720 44.813,33.720 ZM67.000,116.920 C46.316,116.920 28.173,98.777 28.173,78.093 C28.173,75.032 30.653,72.547 33.720,72.547 L100.280,72.547 C103.347,72.547 105.827,75.032 105.827,78.093 C105.827,98.777 87.684,116.920 67.000,116.920 Z"/>
</svg>