<svg 
 xmlns="http://www.w3.org/2000/svg"
 xmlns:xlink="http://www.w3.org/1999/xlink"
 width="60px" height="48px">
<path fill-rule="evenodd"  fill="rgb(39, 45, 52)"
 d="M59.000,48.000 L1.000,48.000 C0.464,48.000 -0.000,47.536 -0.000,47.000 L-0.000,1.000 C-0.000,0.464 0.464,-0.000 1.000,-0.000 L59.000,-0.000 C59.536,-0.000 60.000,0.464 60.000,1.000 L60.000,47.000 C60.000,47.536 59.536,48.000 59.000,48.000 ZM55.000,5.000 L5.000,5.000 L5.000,39.000 L19.201,19.668 C19.275,19.570 19.389,19.511 19.511,19.508 C19.638,19.506 19.750,19.560 19.827,19.655 L31.650,34.220 L40.899,26.074 C41.058,25.934 41.299,25.944 41.446,26.096 L55.000,40.000 L55.000,5.000 ZM35.380,14.425 C35.380,11.797 37.509,9.665 40.136,9.665 C42.762,9.665 44.893,11.797 44.893,14.425 C44.893,17.054 42.762,19.185 40.136,19.185 C37.509,19.185 35.380,17.054 35.380,14.425 Z"/>
</svg>