<svg xmlns="http://www.w3.org/2000/svg" width="37.938" height="41.88" viewBox="0 0 37.938 41.88">
  <defs>
    <style>
      .cls-1 {
        fill: #fff;
        fill-rule: evenodd;
      }
    </style>
  </defs>
  <path id="i-invite.svg" class="cls-1" d="M106.916,1045.59l3.056,2.06v-15.29a2.265,2.265,0,0,1,2.257-2.26h15.542a2.265,2.265,0,0,1,2.257,2.26v15.29l3.057-2.06,4.177-2.83,1.335-.9-5.512-3.38v-6.12a5.314,5.314,0,0,0-5.314-5.31H112.229a5.313,5.313,0,0,0-5.313,5.31v6.12l-5.513,3.38,1.335,0.9ZM120,1039.23a3.466,3.466,0,0,0-3.4-2.48,3.544,3.544,0,0,0-3.541,3.54c0,4.95,6.409,8.61,6.944,8.61,0.57,0,6.944-3.61,6.944-8.61a3.544,3.544,0,0,0-3.541-3.54A3.466,3.466,0,0,0,120,1039.23Zm0,18.89-18.976-12.83v21.01a2.645,2.645,0,0,0,2.649,2.65h32.652a2.645,2.645,0,0,0,2.649-2.65v-21.01Z" transform="translate(-101.031 -1027.06)"/>
</svg>
