<svg xmlns="http://www.w3.org/2000/svg" width="38.875" height="34.312" viewBox="0 0 38.875 34.312">
  <defs>
    <style>
      .cls-1 {
        fill: #fff;
        fill-rule: evenodd;
      }
    </style>
  </defs>
  <path id="i-liked.svg" class="cls-1" d="M136.043,810.441l-15.088,15.214a1.655,1.655,0,0,1-1.179.493,1.6,1.6,0,0,1-.324-0.032,1.64,1.64,0,0,1-.875-0.461L103.49,810.441a10.967,10.967,0,0,1,0-15.4,10.738,10.738,0,0,1,15.271,0l1.005,1.014,1-1.014a10.739,10.739,0,0,1,15.272,0A10.969,10.969,0,0,1,136.043,810.441Z" transform="translate(-100.344 -791.844)"/>
</svg>
