<svg xmlns="http://www.w3.org/2000/svg" width="38.563" height="36.94" viewBox="0 0 38.563 36.94">
  <defs>
    <style>
      .cls-1 {
        fill: #fff;
        fill-rule: evenodd;
      }
    </style>
  </defs>
  <path id="i-logout.svg" class="cls-1" d="M135.531,2140.54a18.261,18.261,0,0,0-10.815,3.51,0.855,0.855,0,0,0-.226,1.14l2.969,4.82a0.811,0.811,0,0,0,.562.39,0.836,0.836,0,0,0,.668-0.14,10.79,10.79,0,1,1,0,17.48,0.836,0.836,0,0,0-.668-0.14,0.811,0.811,0,0,0-.562.39l-2.969,4.82a0.855,0.855,0,0,0,.226,1.14,18.261,18.261,0,0,0,10.815,3.51A18.46,18.46,0,0,0,135.531,2140.54Zm-8.388,25.38a0.859,0.859,0,0,0-.042-0.88l-2.008-3.01h12.149a3.03,3.03,0,0,0,0-6.06H125.093l2.008-3.01a0.865,0.865,0,0,0-.711-1.34H120.6a0.86,0.86,0,0,0-.712.39l-4.341,6.52a0.843,0.843,0,0,0,0,.94l4.341,6.52a0.86,0.86,0,0,0,.712.39h5.788A0.857,0.857,0,0,0,127.143,2165.92Z" transform="translate(-115.406 -2140.53)"/>
</svg>
