<svg xmlns="http://www.w3.org/2000/svg" width="36" height="33" viewBox="0 0 36 33">
  <defs>
    <style>
      .cls-1 {
        fill: #fff;
        fill-rule: evenodd;
      }
    </style>
  </defs>
  <path id="i-matching.svg" class="cls-1" d="M126.608,697.733l-5.731-2.865a1.579,1.579,0,0,1-.877-1.419V691.42c0.137-.168.282-0.359,0.431-0.57a13.721,13.721,0,0,0,1.773-3.48,2.381,2.381,0,0,0,1.4-2.17v-2.4a2.392,2.392,0,0,0-.6-1.575v-3.191a5.375,5.375,0,0,0-1.255-3.915c-1.233-1.406-3.232-2.119-5.945-2.119s-4.712.713-5.945,2.118a5.376,5.376,0,0,0-1.255,3.915v3.191a2.4,2.4,0,0,0-.6,1.575v2.4a2.388,2.388,0,0,0,.9,1.866,12.6,12.6,0,0,0,2.1,4.342v1.985a1.585,1.585,0,0,1-.826,1.392l-5.353,2.92A5.413,5.413,0,0,0,102,702.457V705h27.6v-2.426A5.384,5.384,0,0,0,126.608,697.733Zm8.672,0.682-5.834-2.525a1.194,1.194,0,0,1-.422-0.463l3.915,0s0.226,0.022.577,0.022a6.3,6.3,0,0,0,2.4-.424,1.781,1.781,0,0,0,.746-2.658c-1.119-1.592-3.731-5.754-3.812-9.974,0-.072-0.239-7.25-7.326-7.308a8.909,8.909,0,0,0-2.024.248,6.459,6.459,0,0,1,.4,2.746v2.839a3.278,3.278,0,0,1,.6,1.885v2.4a3.3,3.3,0,0,1-1.564,2.8,14.619,14.619,0,0,1-1.769,3.373c-0.09.128-.179,0.248-0.266,0.362v1.716a0.673,0.673,0,0,0,.379.613l5.731,2.866a6.276,6.276,0,0,1,3.489,5.646V705H138v-2.218A4.852,4.852,0,0,0,135.28,698.415Z" transform="translate(-102 -672)"/>
</svg>
