<svg 
 xmlns="http://www.w3.org/2000/svg"
 xmlns:xlink="http://www.w3.org/1999/xlink"
 width="57px" height="60px">
<defs>
<linearGradient id="PSgrad_0" x1="0%" x2="0%" y1="100%" y2="0%">
  <stop offset="0%" stop-color="rgb(31,120,214)" stop-opacity="1" />
  <stop offset="100%" stop-color="rgb(38,140,247)" stop-opacity="1" />
</linearGradient>

</defs>
<path fill-rule="evenodd"  fill="rgb(0, 0, 0)"
 d="M11.602,25.632 C11.495,24.730 11.174,23.892 10.691,23.172 L53.981,8.739 L51.709,1.943 C51.378,0.955 50.308,0.422 49.320,0.752 L2.230,16.451 C1.241,16.780 0.707,17.848 1.037,18.836 L2.151,22.168 C1.039,23.199 0.341,24.670 0.341,26.302 C0.341,28.416 1.511,30.260 3.238,31.227 L3.238,57.849 C3.238,58.891 4.084,59.735 5.126,59.735 L54.771,59.735 C55.813,59.735 56.659,58.891 56.659,57.849 L56.659,25.632 L11.602,25.632 ZM39.194,6.345 L44.925,4.434 L43.546,10.001 L37.815,11.911 L39.194,6.345 ZM25.034,11.066 L30.765,9.155 L29.386,14.721 L23.655,16.632 L25.034,11.066 ZM5.992,29.177 C4.405,29.177 3.113,27.888 3.113,26.302 C3.113,24.717 4.405,23.428 5.992,23.428 C7.580,23.428 8.871,24.717 8.871,26.302 C8.871,27.888 7.580,29.177 5.992,29.177 ZM10.874,15.787 L16.606,13.876 L15.227,19.442 L9.495,21.353 L10.874,15.787 ZM16.505,31.998 L10.462,31.998 L13.536,27.154 L19.578,27.154 L16.505,31.998 ZM28.464,27.154 L34.506,27.154 L31.433,31.998 L25.390,31.998 L28.464,27.154 ZM26.981,50.562 L26.981,37.786 L37.171,44.174 L26.981,50.562 ZM46.361,31.998 L40.318,31.998 L43.392,27.154 L49.434,27.154 L46.361,31.998 Z"/>
<path fill="url(#PSgrad_0)"
 d="M11.602,25.632 C11.495,24.730 11.174,23.892 10.691,23.172 L53.981,8.739 L51.709,1.943 C51.378,0.955 50.308,0.422 49.320,0.752 L2.230,16.451 C1.241,16.780 0.707,17.848 1.037,18.836 L2.151,22.168 C1.039,23.199 0.341,24.670 0.341,26.302 C0.341,28.416 1.511,30.260 3.238,31.227 L3.238,57.849 C3.238,58.891 4.084,59.735 5.126,59.735 L54.771,59.735 C55.813,59.735 56.659,58.891 56.659,57.849 L56.659,25.632 L11.602,25.632 ZM39.194,6.345 L44.925,4.434 L43.546,10.001 L37.815,11.911 L39.194,6.345 ZM25.034,11.066 L30.765,9.155 L29.386,14.721 L23.655,16.632 L25.034,11.066 ZM5.992,29.177 C4.405,29.177 3.113,27.888 3.113,26.302 C3.113,24.717 4.405,23.428 5.992,23.428 C7.580,23.428 8.871,24.717 8.871,26.302 C8.871,27.888 7.580,29.177 5.992,29.177 ZM10.874,15.787 L16.606,13.876 L15.227,19.442 L9.495,21.353 L10.874,15.787 ZM16.505,31.998 L10.462,31.998 L13.536,27.154 L19.578,27.154 L16.505,31.998 ZM28.464,27.154 L34.506,27.154 L31.433,31.998 L25.390,31.998 L28.464,27.154 ZM26.981,50.562 L26.981,37.786 L37.171,44.174 L26.981,50.562 ZM46.361,31.998 L40.318,31.998 L43.392,27.154 L49.434,27.154 L46.361,31.998 Z"/>
</svg>