<?xml version="1.0" encoding="utf-8"?>
<!-- Generator: Adobe Illustrator 22.1.0, SVG Export Plug-In . SVG Version: 6.00 Build 0)  -->
<svg version="1.1" id="Layer_1" xmlns="http://www.w3.org/2000/svg" xmlns:xlink="http://www.w3.org/1999/xlink" x="0px" y="0px"
	 viewBox="0 0 111 111" style="enable-background:new 0 0 111 111;" xml:space="preserve">
<style type="text/css">
	.st0{fill:#FFFFFF;}
</style>
<path id="i-mood.svg" class="st0" d="M55.5,0C24.9,0,0,24.8,0,55.5S24.8,111,55.5,111c30.7,0,55.5-24.8,55.5-55.5c0,0,0,0,0,0
	C111,24.9,86.1,0,55.5,0z M74,27.7c5.1,0,9.3,4.1,9.3,9.2c0,5.1-4.1,9.3-9.2,9.3c-5.1,0-9.3-4.1-9.3-9.2c0,0,0,0,0,0
	C64.8,31.9,68.9,27.8,74,27.7z M37,27.7c5.1,0,9.2,4.2,9.2,9.3c0,5.1-4.2,9.2-9.3,9.2c-5.1,0-9.2-4.1-9.2-9.2
	C27.8,31.9,31.9,27.7,37,27.7C37,27.7,37,27.7,37,27.7L37,27.7z M55.5,97.1c-17.2,0-32.4-15.1-32.4-32.4c0-2.6,2.1-4.6,4.6-4.6h55.5
	c2.6,0,4.6,2.1,4.6,4.6C87.9,82,72.7,97.1,55.5,97.1z"/>
</svg>
