<svg 
 xmlns="http://www.w3.org/2000/svg"
 xmlns:xlink="http://www.w3.org/1999/xlink"
 width="57px" height="61px">
<defs>
<linearGradient id="PSgrad_0" x1="0%" x2="0%" y1="100%" y2="0%">
  <stop offset="0%" stop-color="rgb(31,120,214)" stop-opacity="1" />
  <stop offset="100%" stop-color="rgb(38,140,247)" stop-opacity="1" />
</linearGradient>

</defs>
<path fill-rule="evenodd"  fill="rgb(0, 0, 0)"
 d="M55.814,0.942 C55.579,0.737 55.270,0.644 54.957,0.681 L21.304,5.033 C20.763,5.104 20.358,5.563 20.358,6.109 L20.358,12.638 L20.358,17.208 L20.358,44.753 C18.376,42.371 15.226,40.821 11.673,40.821 C5.687,40.821 0.817,45.202 0.817,50.587 C0.817,55.973 5.687,60.353 11.673,60.353 C17.659,60.353 22.529,55.973 22.529,50.587 C22.529,50.335 22.509,50.088 22.487,49.842 C22.501,49.771 22.529,49.707 22.529,49.633 L22.529,18.162 L54.012,14.089 L54.012,33.900 C52.029,31.520 48.880,29.970 45.327,29.970 C39.341,29.970 34.471,34.351 34.471,39.736 C34.471,45.121 39.341,49.502 45.327,49.502 C51.259,49.502 56.088,45.199 56.175,39.880 C56.175,39.866 56.183,39.854 56.183,39.840 L56.183,12.855 L56.183,8.285 L56.183,1.757 C56.183,1.445 56.048,1.148 55.814,0.942 Z"/>
<path fill="url(#PSgrad_0)"
 d="M55.814,0.942 C55.579,0.737 55.270,0.644 54.957,0.681 L21.304,5.033 C20.763,5.104 20.358,5.563 20.358,6.109 L20.358,12.638 L20.358,17.208 L20.358,44.753 C18.376,42.371 15.226,40.821 11.673,40.821 C5.687,40.821 0.817,45.202 0.817,50.587 C0.817,55.973 5.687,60.353 11.673,60.353 C17.659,60.353 22.529,55.973 22.529,50.587 C22.529,50.335 22.509,50.088 22.487,49.842 C22.501,49.771 22.529,49.707 22.529,49.633 L22.529,18.162 L54.012,14.089 L54.012,33.900 C52.029,31.520 48.880,29.970 45.327,29.970 C39.341,29.970 34.471,34.351 34.471,39.736 C34.471,45.121 39.341,49.502 45.327,49.502 C51.259,49.502 56.088,45.199 56.175,39.880 C56.175,39.866 56.183,39.854 56.183,39.840 L56.183,12.855 L56.183,8.285 L56.183,1.757 C56.183,1.445 56.048,1.148 55.814,0.942 Z"/>
</svg>