<svg xmlns="http://www.w3.org/2000/svg" width="34.062" height="37.656" viewBox="0 0 34.062 37.656">
  <defs>
    <style>
      .cls-1 {
        fill: #fff;
        fill-rule: evenodd;
      }
    </style>
  </defs>
  <path id="i-notification.svg" class="cls-1" d="M129.4,925.836c-4.854-10.444-7.377-14.411-15.308-14.247-2.824.059-2.146-2.045-4.3-1.247s-0.305,1.967-2.506,3.773c-6.179,5.071-5.609,9.762-2.744,20.944,1.208,4.709-2.91,4.94-1.281,9.506,1.189,3.328,9.959,4.722,19.211,1.289s15.093-10.247,13.9-13.575C134.746,927.713,131.446,930.233,129.4,925.836Zm-7.932,17.205c-8.263,3.066-15.054,1.262-15.341.461-0.5-1.382,2.667-5.994,12.114-9.5s14.719-2.2,15.27-.661C133.838,934.253,129.732,939.975,121.469,943.041Zm-2.656-7.438a30.958,30.958,0,0,0-9.265,5.087c1.367,1.242,3.929,1.545,6.484.6,3.251-1.206,5.247-3.975,4.457-6.184-0.009-.027-0.023-0.051-0.033-0.077Q119.657,935.291,118.813,935.6Z" transform="translate(-102.469 -910.156)"/>
</svg>
