<svg 
 xmlns="http://www.w3.org/2000/svg"
 xmlns:xlink="http://www.w3.org/1999/xlink"
 width="56px" height="61px">
<defs>
<linearGradient id="PSgrad_0" x1="0%" x2="0%" y1="100%" y2="0%">
  <stop offset="0%" stop-color="rgb(31,120,214)" stop-opacity="1" />
  <stop offset="100%" stop-color="rgb(38,140,247)" stop-opacity="1" />
</linearGradient>

</defs>
<path fill-rule="evenodd"  fill="rgb(0, 0, 0)"
 d="M54.684,48.022 L42.013,52.242 C41.836,52.302 41.654,52.328 41.477,52.328 C40.764,52.328 40.101,51.876 39.863,51.162 C39.567,50.271 40.049,49.306 40.942,49.009 L45.659,47.438 L42.695,38.508 C41.935,38.652 41.168,38.745 40.392,38.745 C34.994,38.745 30.221,35.295 28.516,30.159 L27.610,26.468 L26.230,36.829 C24.971,42.697 19.831,46.857 13.987,46.857 C13.661,46.857 13.336,46.830 13.010,46.804 L11.025,55.991 L15.890,57.045 C16.809,57.245 17.392,58.149 17.194,59.070 C17.022,59.868 16.318,60.414 15.535,60.414 C15.415,60.414 15.295,60.402 15.174,60.376 L8.663,58.967 C8.656,58.965 8.647,58.967 8.640,58.965 C8.637,58.965 8.634,58.961 8.629,58.961 L2.121,57.553 C1.202,57.353 0.619,56.448 0.818,55.528 C1.016,54.607 1.924,54.038 2.839,54.222 L7.700,55.273 L9.692,46.047 C7.135,45.120 4.939,43.437 3.441,41.107 C1.627,38.291 1.019,34.935 1.725,31.659 L7.545,12.799 L25.193,16.621 L23.814,10.999 L44.464,4.116 L52.230,22.097 C53.339,25.416 53.095,28.818 51.597,31.814 C50.357,34.294 48.355,36.206 45.914,37.406 L48.886,46.362 L53.613,44.788 C54.501,44.484 55.466,44.977 55.763,45.868 C56.060,46.759 55.577,47.724 54.684,48.022 ZM9.873,16.788 L5.012,32.522 C4.534,34.767 4.979,37.210 6.298,39.262 C7.618,41.313 9.656,42.726 12.039,43.240 L12.041,43.240 C16.895,44.292 21.848,41.060 22.883,36.246 L25.031,20.071 L9.873,16.788 ZM48.557,30.288 C49.646,28.106 49.826,25.628 49.055,23.311 L42.583,8.334 L27.865,13.238 L31.781,29.215 C32.986,32.826 36.461,35.339 40.393,35.339 C41.369,35.339 42.341,35.182 43.277,34.867 C45.591,34.097 47.465,32.470 48.557,30.288 ZM33.782,28.612 L31.493,18.192 C35.039,15.732 34.579,24.383 40.946,22.261 C45.316,20.807 46.839,23.545 47.167,24.272 C48.314,27.931 46.330,31.860 42.681,33.077 C39.003,34.305 35.009,32.300 33.782,28.612 ZM12.437,41.397 C8.682,40.586 6.287,36.894 7.036,33.128 C7.274,32.368 8.501,29.483 13.003,30.459 C19.557,31.876 18.166,23.327 21.961,25.390 L20.806,36.000 C19.986,39.801 16.232,42.222 12.437,41.397 ZM25.304,7.205 C24.241,7.263 23.333,6.448 23.276,5.384 C23.219,4.322 24.033,3.415 25.096,3.357 C26.154,3.299 27.061,4.114 27.119,5.176 C27.177,6.240 26.362,7.148 25.304,7.205 ZM18.821,10.643 C17.763,10.701 16.855,9.886 16.798,8.823 C16.741,7.761 17.555,6.853 18.613,6.795 C19.676,6.738 20.584,7.553 20.642,8.615 C20.699,9.678 19.885,10.586 18.821,10.643 ZM17.869,3.840 C16.808,3.897 15.900,3.083 15.842,2.021 C15.784,0.957 16.598,0.049 17.662,-0.008 C18.720,-0.066 19.628,0.749 19.685,1.812 C19.742,2.874 18.928,3.783 17.869,3.840 Z"/>
<path fill="url(#PSgrad_0)"
 d="M54.684,48.022 L42.013,52.242 C41.836,52.302 41.654,52.328 41.477,52.328 C40.764,52.328 40.101,51.876 39.863,51.162 C39.567,50.271 40.049,49.306 40.942,49.009 L45.659,47.438 L42.695,38.508 C41.935,38.652 41.168,38.745 40.392,38.745 C34.994,38.745 30.221,35.295 28.516,30.159 L27.610,26.468 L26.230,36.829 C24.971,42.697 19.831,46.857 13.987,46.857 C13.661,46.857 13.336,46.830 13.010,46.804 L11.025,55.991 L15.890,57.045 C16.809,57.245 17.392,58.149 17.194,59.070 C17.022,59.868 16.318,60.414 15.535,60.414 C15.415,60.414 15.295,60.402 15.174,60.376 L8.663,58.967 C8.656,58.965 8.647,58.967 8.640,58.965 C8.637,58.965 8.634,58.961 8.629,58.961 L2.121,57.553 C1.202,57.353 0.619,56.448 0.818,55.528 C1.016,54.607 1.924,54.038 2.839,54.222 L7.700,55.273 L9.692,46.047 C7.135,45.120 4.939,43.437 3.441,41.107 C1.627,38.291 1.019,34.935 1.725,31.659 L7.545,12.799 L25.193,16.621 L23.814,10.999 L44.464,4.116 L52.230,22.097 C53.339,25.416 53.095,28.818 51.597,31.814 C50.357,34.294 48.355,36.206 45.914,37.406 L48.886,46.362 L53.613,44.788 C54.501,44.484 55.466,44.977 55.763,45.868 C56.060,46.759 55.577,47.724 54.684,48.022 ZM9.873,16.788 L5.012,32.522 C4.534,34.767 4.979,37.210 6.298,39.262 C7.618,41.313 9.656,42.726 12.039,43.240 L12.041,43.240 C16.895,44.292 21.848,41.060 22.883,36.246 L25.031,20.071 L9.873,16.788 ZM48.557,30.288 C49.646,28.106 49.826,25.628 49.055,23.311 L42.583,8.334 L27.865,13.238 L31.781,29.215 C32.986,32.826 36.461,35.339 40.393,35.339 C41.369,35.339 42.341,35.182 43.277,34.867 C45.591,34.097 47.465,32.470 48.557,30.288 ZM33.782,28.612 L31.493,18.192 C35.039,15.732 34.579,24.383 40.946,22.261 C45.316,20.807 46.839,23.545 47.167,24.272 C48.314,27.931 46.330,31.860 42.681,33.077 C39.003,34.305 35.009,32.300 33.782,28.612 ZM12.437,41.397 C8.682,40.586 6.287,36.894 7.036,33.128 C7.274,32.368 8.501,29.483 13.003,30.459 C19.557,31.876 18.166,23.327 21.961,25.390 L20.806,36.000 C19.986,39.801 16.232,42.222 12.437,41.397 ZM25.304,7.205 C24.241,7.263 23.333,6.448 23.276,5.384 C23.219,4.322 24.033,3.415 25.096,3.357 C26.154,3.299 27.061,4.114 27.119,5.176 C27.177,6.240 26.362,7.148 25.304,7.205 ZM18.821,10.643 C17.763,10.701 16.855,9.886 16.798,8.823 C16.741,7.761 17.555,6.853 18.613,6.795 C19.676,6.738 20.584,7.553 20.642,8.615 C20.699,9.678 19.885,10.586 18.821,10.643 ZM17.869,3.840 C16.808,3.897 15.900,3.083 15.842,2.021 C15.784,0.957 16.598,0.049 17.662,-0.008 C18.720,-0.066 19.628,0.749 19.685,1.812 C19.742,2.874 18.928,3.783 17.869,3.840 Z"/>
</svg>