<?xml version="1.0" encoding="utf-8"?>
<!-- Generator: Adobe Illustrator 22.1.0, SVG Export Plug-In . SVG Version: 6.00 Build 0)  -->
<svg version="1.1" id="Layer_1" xmlns="http://www.w3.org/2000/svg" xmlns:xlink="http://www.w3.org/1999/xlink" x="0px" y="0px"
	 viewBox="0 0 120 109" style="enable-background:new 0 0 120 109;" xml:space="preserve">
<style type="text/css">
	.st0{fill:#FFFFFF;}
</style>
<path id="i-photography.svg" class="st0" d="M115.3,23.9c-3-3.1-7.1-4.8-11.3-4.7H90l-3.2-8.5c-0.9-2.2-2.4-4-4.4-5.3
	c-2.1-1.5-4-3.2-6.2-3.2H43.7c-2.2,0-4.1,1.7-6.2,3.2c-1.9,1.3-3.5,3.1-4.4,5.3L30,19.2H16c-8.8,0-16,7.1-16,16c0,0,0,0,0,0v56
	c-0.1,4.3,1.6,8.3,4.7,11.3c2.8,2.9,6.8,4.5,10.8,4.3h89c4.1,0.2,8-1.3,10.8-4.3c3.1-3,4.7-7.1,4.7-11.3v-56
	C120.1,30.9,118.4,26.8,115.3,23.9z M79.8,83C69,94,51.3,94.2,40.2,83.4c-11-10.8-11.2-28.5-0.4-39.6c0.1-0.1,0.3-0.3,0.4-0.4
	C51,32.4,68.7,32.2,79.8,43c11,10.8,11.2,28.5,0.4,39.6C80,82.7,79.9,82.8,79.8,83z M60,45.2c-10,0-18.1,8-18.1,18
	c0,10,8,18.1,18,18.1c10,0,18.1-8,18.1-18c0-4.8-1.9-9.4-5.3-12.8C69.4,47,64.8,45.1,60,45.2z"/>
</svg>
