<svg 
 xmlns="http://www.w3.org/2000/svg"
 xmlns:xlink="http://www.w3.org/1999/xlink"
 width="61px" height="48px">
<path fill-rule="evenodd"  fill="rgb(39, 45, 52)"
 d="M30.500,17.961 C25.497,17.961 21.441,22.018 21.441,27.019 C21.441,32.023 25.497,36.078 30.500,36.078 C35.502,36.078 39.558,32.023 39.558,27.019 C39.558,22.018 35.502,17.961 30.500,17.961 ZM54.656,8.902 L47.409,8.902 C46.412,8.902 45.339,8.129 45.024,7.184 L43.151,1.562 C42.835,0.617 41.997,-0.000 41.000,-0.000 L20.000,-0.000 C19.004,-0.000 18.163,0.617 17.849,1.563 L15.976,7.185 C15.660,8.129 14.587,8.902 13.591,8.902 L6.344,8.902 C3.023,8.902 -0.000,11.678 -0.000,15.000 L-0.000,42.000 C-0.000,45.321 2.679,48.000 6.000,48.000 L55.000,48.000 C58.321,48.000 61.000,45.321 61.000,42.000 L61.000,15.000 C61.000,11.678 57.977,8.902 54.656,8.902 ZM30.500,42.117 C22.162,42.117 15.402,35.357 15.402,27.019 C15.402,18.682 22.162,11.922 30.500,11.922 C38.837,11.922 45.597,18.682 45.597,27.019 C45.597,35.357 38.837,42.117 30.500,42.117 ZM52.542,19.165 C51.376,19.165 50.429,18.219 50.429,17.051 C50.429,15.884 51.376,14.937 52.542,14.937 C53.710,14.937 54.656,15.884 54.656,17.051 C54.656,18.219 53.710,19.165 52.542,19.165 Z"/>
</svg>