<svg 
 xmlns="http://www.w3.org/2000/svg"
 xmlns:xlink="http://www.w3.org/1999/xlink"
 width="141px" height="121px">
<defs>
<linearGradient id="PSgrad_0" x1="0%" x2="0%" y1="100%" y2="0%">
  <stop offset="0%" stop-color="rgb(31,120,214)" stop-opacity="1" />
  <stop offset="100%" stop-color="rgb(38,140,247)" stop-opacity="1" />
</linearGradient>

</defs>
<path fill-rule="evenodd"  fill="rgb(0, 0, 0)"
 d="M134.673,115.390 C131.047,119.016 126.673,120.829 121.549,120.829 L19.453,120.829 C14.328,120.829 9.954,119.016 6.328,115.390 C2.703,111.766 0.890,107.391 0.890,102.266 L0.890,37.296 C0.890,32.172 2.703,27.798 6.328,24.172 C9.954,20.547 14.328,18.734 19.453,18.734 L35.695,18.734 L39.393,8.873 C40.312,6.504 41.991,4.462 44.432,2.745 C46.874,1.029 49.376,0.170 51.938,0.170 L89.063,0.170 C91.626,0.170 94.128,1.029 96.569,2.745 C99.012,4.462 100.691,6.504 101.610,8.873 L105.306,18.734 L121.549,18.734 C126.674,18.734 131.047,20.547 134.673,24.172 C138.298,27.798 140.111,32.172 140.110,37.296 L140.110,102.266 C140.110,107.391 138.297,111.766 134.673,115.390 ZM93.450,46.833 C87.092,40.477 79.444,37.298 70.500,37.298 C61.557,37.298 53.907,40.476 47.551,46.833 C41.194,53.190 38.015,60.839 38.015,69.783 C38.015,78.725 41.193,86.376 47.551,92.732 C53.908,99.089 61.557,102.268 70.500,102.268 C79.444,102.268 87.094,99.089 93.450,92.732 C99.806,86.375 102.985,78.725 102.985,69.783 C102.985,60.839 99.808,53.190 93.450,46.833 ZM70.500,90.665 C64.748,90.665 59.829,88.623 55.744,84.539 C51.659,80.453 49.617,75.535 49.617,69.783 C49.617,64.029 51.659,59.111 55.744,55.026 C59.829,50.941 64.748,48.899 70.500,48.899 C76.252,48.899 81.172,50.941 85.257,55.026 C89.342,59.111 91.384,64.029 91.384,69.783 C91.384,75.535 89.342,80.453 85.257,84.539 C81.172,88.623 76.252,90.665 70.500,90.665 Z"/>
<path fill="url(#PSgrad_0)"
 d="M134.673,115.390 C131.047,119.016 126.673,120.829 121.549,120.829 L19.453,120.829 C14.328,120.829 9.954,119.016 6.328,115.390 C2.703,111.766 0.890,107.391 0.890,102.266 L0.890,37.296 C0.890,32.172 2.703,27.798 6.328,24.172 C9.954,20.547 14.328,18.734 19.453,18.734 L35.695,18.734 L39.393,8.873 C40.312,6.504 41.991,4.462 44.432,2.745 C46.874,1.029 49.376,0.170 51.938,0.170 L89.063,0.170 C91.626,0.170 94.128,1.029 96.569,2.745 C99.012,4.462 100.691,6.504 101.610,8.873 L105.306,18.734 L121.549,18.734 C126.674,18.734 131.047,20.547 134.673,24.172 C138.298,27.798 140.111,32.172 140.110,37.296 L140.110,102.266 C140.110,107.391 138.297,111.766 134.673,115.390 ZM93.450,46.833 C87.092,40.477 79.444,37.298 70.500,37.298 C61.557,37.298 53.907,40.476 47.551,46.833 C41.194,53.190 38.015,60.839 38.015,69.783 C38.015,78.725 41.193,86.376 47.551,92.732 C53.908,99.089 61.557,102.268 70.500,102.268 C79.444,102.268 87.094,99.089 93.450,92.732 C99.806,86.375 102.985,78.725 102.985,69.783 C102.985,60.839 99.808,53.190 93.450,46.833 ZM70.500,90.665 C64.748,90.665 59.829,88.623 55.744,84.539 C51.659,80.453 49.617,75.535 49.617,69.783 C49.617,64.029 51.659,59.111 55.744,55.026 C59.829,50.941 64.748,48.899 70.500,48.899 C76.252,48.899 81.172,50.941 85.257,55.026 C89.342,59.111 91.384,64.029 91.384,69.783 C91.384,75.535 89.342,80.453 85.257,84.539 C81.172,88.623 76.252,90.665 70.500,90.665 Z"/>
</svg>