<svg 
 xmlns="http://www.w3.org/2000/svg"
 xmlns:xlink="http://www.w3.org/1999/xlink"
 width="72px" height="132px">
<defs>
<linearGradient id="PSgrad_0" x1="0%" x2="0%" y1="100%" y2="0%">
  <stop offset="0%" stop-color="rgb(31,120,214)" stop-opacity="1" />
  <stop offset="100%" stop-color="rgb(38,140,247)" stop-opacity="1" />
</linearGradient>

</defs>
<path fill-rule="evenodd"  fill="rgb(0, 0, 0)"
 d="M70.976,75.395 L64.783,84.372 L48.255,30.750 L71.177,69.113 C72.236,70.883 72.141,73.701 70.976,75.395 ZM60.896,6.120 L43.368,29.356 C43.368,29.356 66.003,107.828 66.003,111.703 C66.003,115.575 36.919,131.036 33.464,131.036 C30.009,131.036 0.927,116.034 0.927,111.703 C0.927,107.370 23.561,29.356 23.561,29.356 L5.015,6.120 C5.015,6.120 2.288,0.960 10.469,0.960 L56.809,0.960 C64.985,0.960 60.896,6.120 60.896,6.120 Z"/>
<path fill="url(#PSgrad_0)"
 d="M70.976,75.395 L64.783,84.372 L48.255,30.750 L71.177,69.113 C72.236,70.883 72.141,73.701 70.976,75.395 ZM60.896,6.120 L43.368,29.356 C43.368,29.356 66.003,107.828 66.003,111.703 C66.003,115.575 36.919,131.036 33.464,131.036 C30.009,131.036 0.927,116.034 0.927,111.703 C0.927,107.370 23.561,29.356 23.561,29.356 L5.015,6.120 C5.015,6.120 2.288,0.960 10.469,0.960 L56.809,0.960 C64.985,0.960 60.896,6.120 60.896,6.120 Z"/>
</svg>