<svg xmlns="http://www.w3.org/2000/svg" width="35.25" height="44.06" viewBox="0 0 35.25 44.06">
  <defs>
    <style>
      .cls-1 {
        fill: #fff;
        fill-rule: evenodd;
      }
    </style>
  </defs>
  <path id="i-profile.svg" class="cls-1" d="M119.5,1169.44c6.514,0,8.858-6.53,9.471-11.89,0.756-6.61-2.365-11.58-9.471-11.58s-10.228,4.97-9.471,11.58C110.643,1162.91,112.986,1169.44,119.5,1169.44Zm17.621,15.55a44.186,44.186,0,0,0-.678-6.22c-0.439-2.49-1-6.13-3.163-7.74-1.252-.94-2.873-1.24-4.306-1.81a17.717,17.717,0,0,1-1.909-.86,10.3,10.3,0,0,1-15.13,0,17.806,17.806,0,0,1-1.909.86c-1.433.57-3.054,0.87-4.306,1.81-2.164,1.61-2.724,5.25-3.163,7.74a44.186,44.186,0,0,0-.678,6.22c-0.055,1.61.74,1.83,2.087,2.32a38.746,38.746,0,0,0,5.182,1.43,51.532,51.532,0,0,0,10.352,1.29,51.541,51.541,0,0,0,10.352-1.29,38.691,38.691,0,0,0,5.181-1.43C136.381,1186.82,137.176,1186.6,137.121,1184.99Z" transform="translate(-101.875 -1145.97)"/>
</svg>
