<?xml version="1.0" encoding="utf-8"?>
<!-- Generator: Adobe Illustrator 22.1.0, SVG Export Plug-In . SVG Version: 6.00 Build 0)  -->
<svg version="1.1" id="Layer_1" xmlns="http://www.w3.org/2000/svg" xmlns:xlink="http://www.w3.org/1999/xlink" x="0px" y="0px"
	 viewBox="0 0 111 109" style="enable-background:new 0 0 111 109;" xml:space="preserve">
<style type="text/css">
	.st0{fill:#FFFFFF;}
</style>
<path id="i-religion.svg" class="st0" d="M93.5,73.5v35.1H111V86.6L93.5,73.5z M0,108.5h17.5V73.5L0,86.6V108.5z M21.9,61.8v46.7
	h21.9V88.1c0-6.3,5.4-10.2,11.7-10.2l0,0c6.3,0,11.7,4.5,11.7,10.8l0,19.9h21.9V61.8L55.5,34.2L21.9,61.8z M7.3,57.4l5.7,6.4
	l42.5-35l42.5,35l5.7-6.9L58.4,19.4v-7.3h8.8V6.3h-8.8V0.5h-5.8v5.8h-8.8v5.8h8.8v7.3L7.3,57.4z"/>
</svg>
