<svg 
 xmlns="http://www.w3.org/2000/svg"
 xmlns:xlink="http://www.w3.org/1999/xlink"
 width="132px" height="130px">
<defs>
<linearGradient id="PSgrad_0" x1="0%" x2="0%" y1="100%" y2="0%">
  <stop offset="0%" stop-color="rgb(31,120,214)" stop-opacity="1" />
  <stop offset="100%" stop-color="rgb(38,140,247)" stop-opacity="1" />
</linearGradient>

</defs>
<path fill-rule="evenodd"  fill="rgb(0, 0, 0)"
 d="M111.000,130.000 L111.000,88.000 L132.000,103.000 L132.000,130.000 L111.000,130.000 ZM123.892,67.989 L117.083,76.246 L66.000,34.183 L14.917,76.246 L8.108,67.989 L63.000,23.000 L63.000,13.000 L53.000,13.000 L53.000,7.000 L63.000,7.000 L63.000,-0.000 L69.000,-0.000 L69.000,7.000 L79.000,7.000 L79.000,12.911 L69.000,13.000 L69.000,23.000 L123.892,67.989 ZM21.000,130.000 L-0.000,130.000 L-0.000,103.000 L21.000,88.000 L21.000,130.000 ZM106.000,74.000 L106.000,130.000 L80.000,130.000 L80.000,106.000 C80.000,98.482 73.675,92.829 66.152,92.829 L65.848,92.829 C58.325,92.829 52.000,98.482 52.000,106.000 L52.000,130.000 L26.000,130.000 L25.980,73.970 L66.000,40.610 L106.000,74.000 Z"/>
<path fill="url(#PSgrad_0)"
 d="M111.000,130.000 L111.000,88.000 L132.000,103.000 L132.000,130.000 L111.000,130.000 ZM123.892,67.989 L117.083,76.246 L66.000,34.183 L14.917,76.246 L8.108,67.989 L63.000,23.000 L63.000,13.000 L53.000,13.000 L53.000,7.000 L63.000,7.000 L63.000,-0.000 L69.000,-0.000 L69.000,7.000 L79.000,7.000 L79.000,12.911 L69.000,13.000 L69.000,23.000 L123.892,67.989 ZM21.000,130.000 L-0.000,130.000 L-0.000,103.000 L21.000,88.000 L21.000,130.000 ZM106.000,74.000 L106.000,130.000 L80.000,130.000 L80.000,106.000 C80.000,98.482 73.675,92.829 66.152,92.829 L65.848,92.829 C58.325,92.829 52.000,98.482 52.000,106.000 L52.000,130.000 L26.000,130.000 L25.980,73.970 L66.000,40.610 L106.000,74.000 Z"/>
</svg>