<svg xmlns="http://www.w3.org/2000/svg" width="36.938" height="36.96" viewBox="0 0 36.938 36.96">
  <defs>
    <style>
      .cls-1 {
        fill: #fff;
        fill-rule: evenodd;
      }
    </style>
  </defs>
  <path id="i-settings.svg" class="cls-1" d="M153.863,2035.79a1.2,1.2,0,0,0-1.188-.91,4.084,4.084,0,0,1-2.793-7.11,1.022,1.022,0,0,0,.112-1.39,18.3,18.3,0,0,0-2.927-2.96,1.031,1.031,0,0,0-1.405.11,4.257,4.257,0,0,1-4.609,1.04,4.117,4.117,0,0,1-2.5-4.02,1.026,1.026,0,0,0-.907-1.08,18.639,18.639,0,0,0-4.157-.01,1.029,1.029,0,0,0-.915,1.06,4.106,4.106,0,0,1-2.531,3.94,4.262,4.262,0,0,1-4.574-1.04,1.03,1.03,0,0,0-1.395-.12,18.477,18.477,0,0,0-2.989,2.96,1.034,1.034,0,0,0,.11,1.41,4.109,4.109,0,0,1,1.033,4.62,4.272,4.272,0,0,1-4.021,2.5,1,1,0,0,0-1.067.9,18.522,18.522,0,0,0-.008,4.21,1.225,1.225,0,0,0,1.212.91,4.057,4.057,0,0,1,3.8,2.54,4.112,4.112,0,0,1-1.033,4.57,1.023,1.023,0,0,0-.113,1.39,18.22,18.22,0,0,0,2.924,2.97,1.024,1.024,0,0,0,1.406-.12,4.254,4.254,0,0,1,4.607-1.03,4.092,4.092,0,0,1,2.5,4.01,1.022,1.022,0,0,0,.907,1.08,18.92,18.92,0,0,0,2.129.13,17.259,17.259,0,0,0,2.029-.12,1.029,1.029,0,0,0,.915-1.06,4.1,4.1,0,0,1,2.528-3.94,4.263,4.263,0,0,1,4.577,1.04,1.028,1.028,0,0,0,1.394.12,18.729,18.729,0,0,0,2.99-2.96,1.033,1.033,0,0,0-.111-1.41,4.094,4.094,0,0,1-1.035-4.61,4.14,4.14,0,0,1,3.78-2.51l0.229,0.01a1.036,1.036,0,0,0,1.082-.91A18.637,18.637,0,0,0,153.863,2035.79Zm-18.334,8.27a6.17,6.17,0,1,1,6.163-6.17A6.175,6.175,0,0,1,135.529,2044.06Z" transform="translate(-117.031 -2019.38)"/>
</svg>
