<svg 
 xmlns="http://www.w3.org/2000/svg"
 xmlns:xlink="http://www.w3.org/1999/xlink"
 width="53px" height="55px">
<path fill-rule="evenodd"  fill="rgb(198, 198, 198)"
 d="M51.804,49.981 L38.859,36.436 C42.187,32.455 44.011,27.447 44.011,22.233 C44.011,10.051 34.159,0.140 22.050,0.140 C9.941,0.140 0.089,10.051 0.089,22.233 C0.089,34.415 9.941,44.326 22.050,44.326 C26.596,44.326 30.928,42.947 34.632,40.328 L47.676,53.976 C48.221,54.545 48.954,54.859 49.740,54.859 C50.484,54.859 51.189,54.574 51.725,54.055 C52.863,52.954 52.900,51.127 51.804,49.981 ZM22.050,5.904 C31.001,5.904 38.282,13.229 38.282,22.233 C38.282,31.237 31.001,38.563 22.050,38.563 C13.100,38.563 5.818,31.237 5.818,22.233 C5.818,13.229 13.100,5.904 22.050,5.904 Z"/>
</svg>