<svg 
 xmlns="http://www.w3.org/2000/svg"
 xmlns:xlink="http://www.w3.org/1999/xlink"
 width="60px" height="60px">
<defs>
<linearGradient id="PSgrad_0" x1="0%" x2="0%" y1="100%" y2="0%">
  <stop offset="0%" stop-color="rgb(31,120,214)" stop-opacity="1" />
  <stop offset="100%" stop-color="rgb(38,140,247)" stop-opacity="1" />
</linearGradient>

</defs>
<path fill-rule="evenodd"  fill="rgb(157, 157, 157)"
 d="M30.000,0.624 C13.803,0.624 0.624,13.803 0.624,30.000 C0.624,46.197 13.803,59.376 30.000,59.376 C46.197,59.376 59.376,46.197 59.376,30.000 C59.376,13.803 46.197,0.624 30.000,0.624 ZM31.865,10.167 L39.419,6.106 C43.601,7.762 47.251,10.476 50.027,13.928 L48.228,22.234 L42.466,25.057 L31.865,17.335 L31.865,10.167 ZM20.644,6.084 L28.197,10.160 L28.197,17.335 L17.603,25.057 L11.813,22.230 L10.013,13.872 C12.797,10.428 16.454,7.729 20.644,6.084 ZM8.812,44.519 C6.415,41.031 4.854,36.929 4.424,32.497 L10.641,25.744 L16.311,28.516 L20.581,40.645 L16.972,44.971 L8.812,44.519 ZM36.547,54.826 C34.450,55.381 32.266,55.704 30.000,55.704 C27.261,55.704 24.624,55.263 22.146,54.467 L19.836,47.277 L23.519,42.852 L36.496,42.852 L40.113,47.133 L36.547,54.826 ZM42.977,44.846 L39.426,40.641 L43.755,28.516 L49.399,25.751 L55.579,32.500 C55.208,36.323 53.978,39.889 52.109,43.043 L42.977,44.846 Z"/>
<path fill="url(#PSgrad_0)"
 d="M30.000,0.624 C13.803,0.624 0.624,13.803 0.624,30.000 C0.624,46.197 13.803,59.376 30.000,59.376 C46.197,59.376 59.376,46.197 59.376,30.000 C59.376,13.803 46.197,0.624 30.000,0.624 ZM31.865,10.167 L39.419,6.106 C43.601,7.762 47.251,10.476 50.027,13.928 L48.228,22.234 L42.466,25.057 L31.865,17.335 L31.865,10.167 ZM20.644,6.084 L28.197,10.160 L28.197,17.335 L17.603,25.057 L11.813,22.230 L10.013,13.872 C12.797,10.428 16.454,7.729 20.644,6.084 ZM8.812,44.519 C6.415,41.031 4.854,36.929 4.424,32.497 L10.641,25.744 L16.311,28.516 L20.581,40.645 L16.972,44.971 L8.812,44.519 ZM36.547,54.826 C34.450,55.381 32.266,55.704 30.000,55.704 C27.261,55.704 24.624,55.263 22.146,54.467 L19.836,47.277 L23.519,42.852 L36.496,42.852 L40.113,47.133 L36.547,54.826 ZM42.977,44.846 L39.426,40.641 L43.755,28.516 L49.399,25.751 L55.579,32.500 C55.208,36.323 53.978,39.889 52.109,43.043 L42.977,44.846 Z"/>
</svg>