<svg 
 xmlns="http://www.w3.org/2000/svg"
 xmlns:xlink="http://www.w3.org/1999/xlink"
 width="41px" height="73px">
<path fill-rule="evenodd"  fill="rgb(255, 255, 255)"
 d="M40.983,54.903 C40.874,59.499 39.059,64.063 35.508,67.571 C28.174,74.815 16.288,74.815 8.955,67.571 L2.210,60.909 C0.700,59.418 0.225,57.311 0.735,55.405 L4.438,41.627 C4.627,40.489 5.154,39.393 6.042,38.515 C7.320,37.253 9.046,36.731 10.714,36.899 L1.691,27.986 C-0.565,25.758 -0.565,22.112 1.691,19.884 C3.947,17.655 7.638,17.655 9.894,19.884 L29.406,39.158 L29.404,36.291 C29.404,30.842 33.258,26.291 38.417,25.128 C38.567,25.089 38.727,25.081 38.891,25.081 C40.058,25.079 41.004,26.013 41.004,27.164 L41.004,54.919 L40.983,54.903 ZM23.577,19.217 L13.848,9.604 L23.577,-0.008 L23.577,6.753 L32.303,6.753 L32.303,12.483 L23.577,12.483 L23.577,19.217 Z"/>
</svg>