<?xml version="1.0" encoding="utf-8"?>
<!-- Generator: Adobe Illustrator 22.1.0, SVG Export Plug-In . SVG Version: 6.00 Build 0)  -->
<svg version="1.1" id="Layer_1" xmlns="http://www.w3.org/2000/svg" xmlns:xlink="http://www.w3.org/1999/xlink" x="0px" y="0px"
	 viewBox="0 0 24.5 18.8" style="enable-background:new 0 0 24.5 18.8;" xml:space="preserve">
<style type="text/css">
	.st0{fill:url(#SVGID_1_);}
</style>
<linearGradient id="SVGID_1_" gradientUnits="userSpaceOnUse" x1="-596.1859" y1="427.3449" x2="-596.1859" y2="428.3449" gradientTransform="matrix(24.466 0 0 -18.826 14598.5156 8064.021)">
	<stop  offset="0" style="stop-color:#1F78D6"/>
	<stop  offset="1" style="stop-color:#268CF7"/>
</linearGradient>
<path class="st0" d="M0.3,10.4C0.1,10.2,0,9.9,0,9.7C0,9.5,0.1,9.2,0.3,9l1.3-1.3c0.4-0.4,0.9-0.4,1.3,0L3,7.8l5.2,5.6
	c0.2,0.2,0.5,0.2,0.7,0L21.5,0.3h0.1l0,0l0,0c0.4-0.4,0.9-0.4,1.3,0l1.3,1.3c0.4,0.4,0.4,0.9,0,1.3l0,0l0,0L9.1,18.5
	c-0.2,0.2-0.4,0.3-0.7,0.3c-0.3,0-0.5-0.1-0.7-0.3l-7.3-7.9L0.3,10.4z"/>
</svg>
