<svg 
 xmlns="http://www.w3.org/2000/svg"
 xmlns:xlink="http://www.w3.org/1999/xlink"
 width="140px" height="133px">
<defs>
<linearGradient id="PSgrad_0" x1="0%" x2="0%" y1="100%" y2="0%">
  <stop offset="0%" stop-color="rgb(31,120,214)" stop-opacity="1" />
  <stop offset="100%" stop-color="rgb(38,140,247)" stop-opacity="1" />
</linearGradient>

</defs>
<path fill-rule="evenodd"  fill="rgb(255, 255, 255)"
 d="M139.732,64.114 C139.732,96.156 116.091,122.782 85.333,127.476 C85.592,126.054 85.665,124.581 85.490,123.089 C85.490,123.089 85.307,121.519 85.066,119.464 C95.987,117.604 105.846,112.594 113.661,105.389 C113.192,104.999 112.725,104.493 112.264,103.822 C110.189,100.794 112.903,97.790 112.903,95.142 C112.903,92.545 107.666,92.759 107.474,91.038 C106.812,85.082 111.131,85.000 113.433,82.699 C115.735,80.397 111.157,75.165 108.200,75.502 C105.223,75.820 96.844,74.128 97.609,67.718 C98.542,59.912 87.661,60.600 86.103,56.957 C83.832,51.646 87.608,45.131 92.533,43.651 C99.508,41.555 106.381,35.865 105.844,29.532 C105.236,22.359 101.988,15.889 96.639,12.046 C91.073,9.792 85.071,8.398 78.791,8.046 C73.187,8.268 68.260,9.513 68.485,12.078 C69.036,18.364 86.916,19.997 83.916,25.873 C82.351,28.937 70.611,33.260 72.804,37.819 C74.230,40.784 77.739,38.243 76.429,43.935 C75.826,46.554 73.529,51.475 69.997,51.792 C66.385,52.129 63.377,42.562 53.544,42.249 C48.896,42.100 42.348,49.499 47.908,54.748 C51.275,57.927 57.594,50.928 59.459,56.395 C60.773,60.248 59.282,68.342 65.415,71.725 C67.651,72.958 71.078,74.033 74.468,75.755 C69.437,76.782 63.254,78.699 55.954,81.510 L49.803,79.888 C52.378,77.745 56.562,76.237 55.509,71.554 C53.963,64.674 42.015,67.269 33.777,59.034 C31.250,56.508 25.860,48.120 25.883,38.043 C21.777,45.840 19.440,54.707 19.440,64.114 C19.440,67.010 19.661,69.855 20.086,72.634 C19.989,72.632 19.893,72.615 19.796,72.615 C17.202,72.615 14.658,73.160 12.300,74.190 C11.779,70.906 11.501,67.543 11.501,64.115 C11.501,28.771 40.264,0.015 75.616,0.015 C110.969,0.014 139.732,28.770 139.732,64.114 ZM91.637,82.797 L75.979,89.993 L76.221,86.582 L86.366,82.004 C84.919,81.900 83.420,81.861 81.923,81.861 C76.318,81.861 66.849,84.697 56.375,88.853 L22.784,79.995 C19.645,79.167 16.303,79.678 13.554,81.404 L11.903,82.442 C10.290,83.454 10.273,85.798 11.870,86.834 L32.062,99.931 C27.239,102.397 22.662,104.901 18.628,107.294 L8.267,101.810 C6.574,100.914 4.573,100.808 2.796,101.519 L1.815,101.912 C0.352,102.498 -0.260,104.237 0.513,105.609 L6.220,115.747 L6.223,115.747 C4.069,117.599 2.842,119.135 2.842,120.198 C2.842,123.379 6.758,124.175 10.210,124.175 C16.367,124.175 97.675,105.563 97.675,88.701 C97.675,85.362 95.391,83.692 91.637,82.797 ZM57.356,115.718 L75.248,109.417 C76.036,109.140 76.878,109.665 76.975,110.495 L78.544,123.903 C78.936,127.254 77.133,130.478 74.073,131.900 L72.395,132.680 C71.347,133.167 70.104,132.906 69.340,132.038 L56.810,117.808 C56.200,117.115 56.485,116.025 57.356,115.718 Z"/>
<path fill="url(#PSgrad_0)"
 d="M139.732,64.114 C139.732,96.156 116.091,122.782 85.333,127.476 C85.592,126.054 85.665,124.581 85.490,123.089 C85.490,123.089 85.307,121.519 85.066,119.464 C95.987,117.604 105.846,112.594 113.661,105.389 C113.192,104.999 112.725,104.493 112.264,103.822 C110.189,100.794 112.903,97.790 112.903,95.142 C112.903,92.545 107.666,92.759 107.474,91.038 C106.812,85.082 111.131,85.000 113.433,82.699 C115.735,80.397 111.157,75.165 108.200,75.502 C105.223,75.820 96.844,74.128 97.609,67.718 C98.542,59.912 87.661,60.600 86.103,56.957 C83.832,51.646 87.608,45.131 92.533,43.651 C99.508,41.555 106.381,35.865 105.844,29.532 C105.236,22.359 101.988,15.889 96.639,12.046 C91.073,9.792 85.071,8.398 78.791,8.046 C73.187,8.268 68.260,9.513 68.485,12.078 C69.036,18.364 86.916,19.997 83.916,25.873 C82.351,28.937 70.611,33.260 72.804,37.819 C74.230,40.784 77.739,38.243 76.429,43.935 C75.826,46.554 73.529,51.475 69.997,51.792 C66.385,52.129 63.377,42.562 53.544,42.249 C48.896,42.100 42.348,49.499 47.908,54.748 C51.275,57.927 57.594,50.928 59.459,56.395 C60.773,60.248 59.282,68.342 65.415,71.725 C67.651,72.958 71.078,74.033 74.468,75.755 C69.437,76.782 63.254,78.699 55.954,81.510 L49.803,79.888 C52.378,77.745 56.562,76.237 55.509,71.554 C53.963,64.674 42.015,67.269 33.777,59.034 C31.250,56.508 25.860,48.120 25.883,38.043 C21.777,45.840 19.440,54.707 19.440,64.114 C19.440,67.010 19.661,69.855 20.086,72.634 C19.989,72.632 19.893,72.615 19.796,72.615 C17.202,72.615 14.658,73.160 12.300,74.190 C11.779,70.906 11.501,67.543 11.501,64.115 C11.501,28.771 40.264,0.015 75.616,0.015 C110.969,0.014 139.732,28.770 139.732,64.114 ZM91.637,82.797 L75.979,89.993 L76.221,86.582 L86.366,82.004 C84.919,81.900 83.420,81.861 81.923,81.861 C76.318,81.861 66.849,84.697 56.375,88.853 L22.784,79.995 C19.645,79.167 16.303,79.678 13.554,81.404 L11.903,82.442 C10.290,83.454 10.273,85.798 11.870,86.834 L32.062,99.931 C27.239,102.397 22.662,104.901 18.628,107.294 L8.267,101.810 C6.574,100.914 4.573,100.808 2.796,101.519 L1.815,101.912 C0.352,102.498 -0.260,104.237 0.513,105.609 L6.220,115.747 L6.223,115.747 C4.069,117.599 2.842,119.135 2.842,120.198 C2.842,123.379 6.758,124.175 10.210,124.175 C16.367,124.175 97.675,105.563 97.675,88.701 C97.675,85.362 95.391,83.692 91.637,82.797 ZM57.356,115.718 L75.248,109.417 C76.036,109.140 76.878,109.665 76.975,110.495 L78.544,123.903 C78.936,127.254 77.133,130.478 74.073,131.900 L72.395,132.680 C71.347,133.167 70.104,132.906 69.340,132.038 L56.810,117.808 C56.200,117.115 56.485,116.025 57.356,115.718 Z"/>
</svg>