<?xml version="1.0" encoding="utf-8"?>
<!-- Generator: Adobe Illustrator 22.1.0, SVG Export Plug-In . SVG Version: 6.00 Build 0)  -->
<svg version="1.1" id="Layer_1" xmlns="http://www.w3.org/2000/svg" xmlns:xlink="http://www.w3.org/1999/xlink" x="0px" y="0px"
	 viewBox="0 0 698.3 169" style="enable-background:new 0 0 698.3 169;" xml:space="preserve">
<style type="text/css">
	.st0{fill:url(#SVGID_1_);}
	.st1{fill:#FFFFFF;}
	.st2{fill:url(#SVGID_2_);}
	.st3{fill:url(#SVGID_3_);}
	.st4{fill:url(#SVGID_4_);}
	.st5{fill:url(#SVGID_5_);}
	.st6{fill:url(#SVGID_6_);}
	.st7{fill:url(#SVGID_7_);}
	.st8{fill:url(#SVGID_8_);}
	.st9{fill:url(#SVGID_9_);}
	.st10{fill:url(#SVGID_10_);}
</style>
<g>
	
		<linearGradient id="SVGID_1_" gradientUnits="userSpaceOnUse" x1="-544.5474" y1="516.6982" x2="-544.5474" y2="517.6982" gradientTransform="matrix(169 0 0 -169 92113 87491)">
		<stop  offset="0" style="stop-color:#1F78D6"/>
		<stop  offset="1" style="stop-color:#268CF7"/>
	</linearGradient>
	<path class="st0" d="M20,0h129c11,0,20,9,20,20v129c0,11-9,20-20,20H20c-11,0-20-9-20-20V20C0,9,9,0,20,0z"/>
	<path class="st1" d="M128.9,87.6l-26.9,27.2c-0.6,0.6-1.3,0.9-2.1,0.9c-0.2,0-0.4,0-0.6-0.1c-0.6-0.1-1.1-0.4-1.6-0.8L88,105
		l4.2-4.2l7.6,7.6l24.9-25.1c5.2-5.2,5.2-13.8,0-19c-2.5-2.5-5.9-3.9-9.4-3.9c-2.9,0-5.6,1-7.9,2.7l-3.6-4.8
		c3.3-2.5,7.3-3.9,11.5-3.9c5.2,0,10,2,13.6,5.7C136.4,67.7,136.4,80,128.9,87.6z M98.2,87.6l-26.9,27.2c-0.6,0.6-1.3,0.9-2.1,0.9
		c-0.2,0-0.4,0-0.6-0.1c-0.6-0.1-1.1-0.4-1.6-0.8L40.1,87.6c-7.5-7.6-7.5-19.9,0-27.5c3.6-3.7,8.5-5.7,13.6-5.7c5.2,0,10,2,13.6,5.7
		l1.8,1.8l1.8-1.8c3.6-3.7,8.5-5.7,13.6-5.7c5.1,0,10,2,13.6,5.7C105.8,67.7,105.8,80,98.2,87.6z M94,64.3c-2.5-2.5-5.9-3.9-9.4-3.9
		c-3.6,0-6.9,1.4-9.4,3.9l-3.9,3.9c-1.1,1.1-3.1,1.1-4.2,0l-3.9-3.9c-2.5-2.5-5.9-3.9-9.4-3.9c-3.6,0-6.9,1.4-9.4,3.9
		c-5.2,5.2-5.2,13.8,0,19l24.9,25.1L94,83.3C99.2,78.1,99.2,69.6,94,64.3z"/>
</g>
<g>
	<linearGradient id="SVGID_2_" gradientUnits="userSpaceOnUse" x1="232.5347" y1="108.6587" x2="232.5347" y2="61.1295">
		<stop  offset="0" style="stop-color:#1F78D6"/>
		<stop  offset="1" style="stop-color:#268CF7"/>
	</linearGradient>
	<path class="st2" d="M215.4,102.2l1.5-2.5c3.2,3.4,9.3,5.9,15.7,5.9c9.5,0,13.7-4.2,13.7-9.3c0-14.3-29.7-5.7-29.7-23.3
		c0-6.7,5.2-12.6,16.8-12.6c5.3,0,10.7,1.6,14.3,4.2l-1.3,2.8c-3.9-2.7-8.7-4-13.1-4c-9.2,0-13.4,4.2-13.4,9.5
		c0,14.3,29.7,5.9,29.7,23.1c0,6.7-5.3,12.6-17.1,12.6C225.6,108.7,218.8,106.1,215.4,102.2z"/>
	<linearGradient id="SVGID_3_" gradientUnits="userSpaceOnUse" x1="285.7009" y1="108.6847" x2="285.7009" y2="61.1555">
		<stop  offset="0" style="stop-color:#1F78D6"/>
		<stop  offset="1" style="stop-color:#268CF7"/>
	</linearGradient>
	<path class="st3" d="M261,84.6c0-13.7,10.5-24.1,24.7-24.1c14.1,0,24.7,10.3,24.7,24.1s-10.5,24.1-24.6,24.1
		C271.5,108.7,261,98.4,261,84.6z M306.9,84.6c0-12.1-9.1-20.9-21.2-20.9s-21.2,8.9-21.2,20.9c0,12.1,9.1,20.9,21.2,20.9
		C297.8,105.5,306.9,96.6,306.9,84.6z"/>
	<linearGradient id="SVGID_4_" gradientUnits="userSpaceOnUse" x1="345.2318" y1="108.6587" x2="345.2318" y2="61.1295">
		<stop  offset="0" style="stop-color:#1F78D6"/>
		<stop  offset="1" style="stop-color:#268CF7"/>
	</linearGradient>
	<path class="st4" d="M326.2,88.2V60.9h3.5v27.2c0,11.9,5.7,17.5,15.6,17.5c9.9,0,15.5-5.6,15.5-17.5V60.9h3.5v27.3
		c0,13.6-7.3,20.5-19.1,20.5C333.4,108.8,326.2,101.8,326.2,88.2z"/>
	<linearGradient id="SVGID_5_" gradientUnits="userSpaceOnUse" x1="399.8831" y1="108.6587" x2="399.8831" y2="61.1295">
		<stop  offset="0" style="stop-color:#1F78D6"/>
		<stop  offset="1" style="stop-color:#268CF7"/>
	</linearGradient>
	<path class="st5" d="M384.5,60.8h3.5v44.5h27.3v3.1h-30.8V60.8z"/>
	<linearGradient id="SVGID_6_" gradientUnits="userSpaceOnUse" x1="452.3704" y1="108.6587" x2="452.3704" y2="61.1358">
		<stop  offset="0" style="stop-color:#1F78D6"/>
		<stop  offset="1" style="stop-color:#268CF7"/>
	</linearGradient>
	<path class="st6" d="M466.3,108.3l-0.2-21.6l-10.4,17.4h-7l-10.3-16.6v20.9h-14.6V60.8H437l15.4,25.3l15.1-25.3h13.2l0.2,47.5
		H466.3z"/>
	<linearGradient id="SVGID_7_" gradientUnits="userSpaceOnUse" x1="516.1869" y1="108.6587" x2="516.1869" y2="61.1358">
		<stop  offset="0" style="stop-color:#1F78D6"/>
		<stop  offset="1" style="stop-color:#268CF7"/>
	</linearGradient>
	<path class="st7" d="M525.1,100.1H507l-3.2,8.3h-16.3l20.8-47.5h15.8l20.8,47.5h-16.5L525.1,100.1z M520.7,88.6l-4.6-12l-4.6,12
		H520.7z"/>
	<linearGradient id="SVGID_8_" gradientUnits="userSpaceOnUse" x1="567.4012" y1="108.6587" x2="567.4012" y2="61.1358">
		<stop  offset="0" style="stop-color:#1F78D6"/>
		<stop  offset="1" style="stop-color:#268CF7"/>
	</linearGradient>
	<path class="st8" d="M559.4,73.3h-13.9V60.9h43.9v12.4h-13.9v35.1h-16V73.3L559.4,73.3z"/>
	<linearGradient id="SVGID_9_" gradientUnits="userSpaceOnUse" x1="618.9127" y1="108.6587" x2="618.9127" y2="61.1295">
		<stop  offset="0" style="stop-color:#1F78D6"/>
		<stop  offset="1" style="stop-color:#268CF7"/>
	</linearGradient>
	<path class="st9" d="M595,84.6c0-14.6,11.2-24.9,26.5-24.9c9.3,0,16.6,3.4,21.3,9.5l-10.1,9c-2.8-3.6-6.1-5.6-10.4-5.6
		c-6.6,0-11.1,4.6-11.1,11.9s4.5,11.9,11.1,11.9c4.2,0,7.6-2,10.4-5.6l10.1,9c-4.7,6.1-12.1,9.5-21.3,9.5
		C606.2,109.4,595,99.2,595,84.6z"/>
	<linearGradient id="SVGID_10_" gradientUnits="userSpaceOnUse" x1="674.8793" y1="108.6587" x2="674.8793" y2="61.1358">
		<stop  offset="0" style="stop-color:#1F78D6"/>
		<stop  offset="1" style="stop-color:#268CF7"/>
	</linearGradient>
	<path class="st10" d="M698.3,60.8v47.5h-16V90.9h-14.8v17.5h-16V60.8h16v16.8h14.8V60.8H698.3z"/>
</g>
</svg>
