<?xml version="1.0" encoding="utf-8"?>
<!-- Generator: Adobe Illustrator 22.1.0, SVG Export Plug-In . SVG Version: 6.00 Build 0)  -->
<svg version="1.1" id="Layer_1" xmlns="http://www.w3.org/2000/svg" xmlns:xlink="http://www.w3.org/1999/xlink" x="0px" y="0px"
	 viewBox="0 0 169.4 169" style="enable-background:new 0 0 169.4 169;" xml:space="preserve">
<style type="text/css">
	.st0{fill:url(#SVGID_1_);}
	.st1{fill:#FFFFFF;}
</style>
<g>
	
		<linearGradient id="SVGID_1_" gradientUnits="userSpaceOnUse" x1="-544.5474" y1="516.6982" x2="-544.5474" y2="517.6982" gradientTransform="matrix(169 0 0 -169 92113 87491)">
		<stop  offset="0" style="stop-color:#1F78D6"/>
		<stop  offset="1" style="stop-color:#268CF7"/>
	</linearGradient>
	<path class="st0" d="M20,0h129c11,0,20,9,20,20v129c0,11-9,20-20,20H20c-11,0-20-9-20-20V20C0,9,9,0,20,0z"/>
	<path class="st1" d="M128.9,87.6l-26.9,27.2c-0.6,0.6-1.3,0.9-2.1,0.9c-0.2,0-0.4,0-0.6-0.1c-0.6-0.1-1.1-0.4-1.6-0.8L88,105
		l4.2-4.2l7.6,7.6l24.9-25.1c5.2-5.2,5.2-13.8,0-19c-2.5-2.5-5.9-3.9-9.4-3.9c-2.9,0-5.6,1-7.9,2.7l-3.6-4.8
		c3.3-2.5,7.3-3.9,11.5-3.9c5.2,0,10,2,13.6,5.7C136.4,67.7,136.4,80,128.9,87.6z M98.2,87.6l-26.9,27.2c-0.6,0.6-1.3,0.9-2.1,0.9
		c-0.2,0-0.4,0-0.6-0.1c-0.6-0.1-1.1-0.4-1.6-0.8L40.1,87.6c-7.5-7.6-7.5-19.9,0-27.5c3.6-3.7,8.5-5.7,13.6-5.7c5.2,0,10,2,13.6,5.7
		l1.8,1.8l1.8-1.8c3.6-3.7,8.5-5.7,13.6-5.7c5.1,0,10,2,13.6,5.7C105.8,67.7,105.8,80,98.2,87.6z M94,64.3c-2.5-2.5-5.9-3.9-9.4-3.9
		c-3.6,0-6.9,1.4-9.4,3.9l-3.9,3.9c-1.1,1.1-3.1,1.1-4.2,0l-3.9-3.9c-2.5-2.5-5.9-3.9-9.4-3.9c-3.6,0-6.9,1.4-9.4,3.9
		c-5.2,5.2-5.2,13.8,0,19l24.9,25.1L94,83.3C99.2,78.1,99.2,69.6,94,64.3z"/>
</g>
</svg>
