<?xml version="1.0" encoding="utf-8"?>
<!-- Generator: Adobe Illustrator 22.1.0, SVG Export Plug-In . SVG Version: 6.00 Build 0)  -->
<svg version="1.1" id="Layer_1" xmlns="http://www.w3.org/2000/svg" xmlns:xlink="http://www.w3.org/1999/xlink" x="0px" y="0px"
	 viewBox="0 0 569.1 391.6" style="enable-background:new 0 0 569.1 391.6;" xml:space="preserve">
<style type="text/css">
	.st0{fill:#FFFFFF;}
</style>
<g>
	<path class="st0" d="M464.7,132.8L356.9,241.4c-2.3,2.3-5.4,3.5-8.4,3.5c-0.8,0-1.5-0.1-2.3-0.2c-2.3-0.4-4.5-1.5-6.2-3.3
		l-38.7-39.1l16.9-16.9l30.3,30.6l99.4-100.2c20.8-21,20.8-55.1,0-76C437.8,29.6,424.4,24,410.2,24c-11.6,0-22.5,3.9-31.6,10.7
		l-14.4-19.2c13.2-10,29.2-15.5,46-15.5c20.6,0,40,8.1,54.5,22.8C494.8,53.1,494.8,102.5,464.7,132.8z M342.2,132.8L234.4,241.5
		c-2.3,2.3-5.4,3.5-8.4,3.5c-0.8,0-1.5-0.1-2.3-0.2c-2.3-0.4-4.5-1.5-6.2-3.3L109.7,132.8c-30.1-30.3-30.1-79.7,0-110
		C124.3,8.1,143.6,0,164.2,0s40,8.1,54.5,22.8L226,30l7.2-7.2C247.7,8.1,267.1,0,287.7,0c20.6,0,40,8.1,54.5,22.8
		C372.3,53.1,372.3,102.5,342.2,132.8z M325.4,39.8C315.3,29.6,301.9,24,287.7,24c-14.2,0-27.6,5.6-37.7,15.7l-15.6,15.7
		c-4.5,4.5-12.4,4.5-16.9,0l-15.6-15.7C191.9,29.6,178.5,24,164.2,24c-14.2,0-27.6,5.6-37.7,15.7c-20.8,21-20.8,55.1,0,76L226,216
		l99.4-100.2C346.2,94.8,346.2,60.7,325.4,39.8z"/>
	<g>
		<path class="st0" d="M0,384.4l1.8-3c3.8,4,11,7,18.5,7c11.2,0,16.2-4.9,16.2-11c0-16.8-35-6.7-35-27.4c0-7.9,6.1-14.9,19.8-14.9
			c6.2,0,12.6,1.9,16.9,5l-1.5,3.3c-4.6-3.2-10.3-4.7-15.4-4.7c-10.9,0-15.8,5-15.8,11.2c0,16.8,35,6.9,35,27.2
			c0,7.9-6.3,14.8-20.2,14.8C12.1,392,4.1,388.9,0,384.4z"/>
		<path class="st0" d="M53.8,363.6c0-16.2,12.4-28.4,29.1-28.4c16.6,0,29.1,12.1,29.1,28.4S99.6,392,83,392
			C66.2,392,53.8,379.9,53.8,363.6z M107.9,363.6c0-14.2-10.7-24.6-25-24.6c-14.3,0-25,10.5-25,24.6c0,14.2,10.7,24.6,25,24.6
			C97.2,388.3,107.9,377.8,107.9,363.6z"/>
		<path class="st0" d="M130.6,367.9v-32.2h4.1v32.1c0,14,6.7,20.6,18.4,20.6s18.3-6.6,18.3-20.6v-32.1h4.1v32.2
			c0,16-8.6,24.2-22.5,24.2S130.6,383.9,130.6,367.9z"/>
		<path class="st0" d="M199.3,335.6h4.1V388h32.2v3.7h-36.3V335.6z"/>
		<path class="st0" d="M295.7,391.6l-0.2-25.5l-12.2,20.5H275L262.9,367v24.6h-17.2v-56h15.5l18.2,29.8l17.8-29.8h15.5l0.2,56H295.7
			z"/>
		<path class="st0" d="M365,381.9h-21.3l-3.8,9.8h-19.2l24.5-56h18.6l24.5,56h-19.5L365,381.9z M359.8,368.3l-5.4-14.1l-5.4,14.1
			H359.8z"/>
		<path class="st0" d="M405.4,350.3H389v-14.6h51.7v14.6h-16.4v41.4h-18.9V350.3z"/>
		<path class="st0" d="M447.4,363.6c0-17.2,13.2-29.3,31.2-29.3c11,0,19.6,4,25.1,11.2l-11.9,10.6c-3.3-4.2-7.2-6.6-12.2-6.6
			c-7.8,0-13.1,5.4-13.1,14c0,8.6,5.3,14,13.1,14c5,0,9-2.4,12.2-6.6l11.9,10.6c-5.5,7.2-14.2,11.2-25.1,11.2
			C460.6,392.9,447.4,380.8,447.4,363.6z"/>
		<path class="st0" d="M569.1,335.6v56h-18.9V371h-17.4v20.6h-18.9v-56h18.9v19.8h17.4v-19.8H569.1z"/>
	</g>
</g>
</svg>
